# xmcd
#
# Track frame offsets:
#	150
#	12800
#	24327
#	34945
#	50322
#	64952
#	77507
#	91442
#	102692
#	111352
#	126147
#	144547
#	154527
#	166217
#	176352
#	188892
#	207182
#	218434
#	228707
#	240345
#
# Disc length: 3354 seconds
#
# Revision: 0
# Processed by: cddbd v1.4PL0 Copyright (c) Steve Scherf et al.
# Submitted via: dBpowerAMP V4.0
#
DISCID=050d1814
DTITLE=Marty Robbins - Great Performances
DYEAR=1900
DGENRE=Country
TTITLE0=I'm So Lonesome I Could Cry
TTITLE1=Are You Sincere?
TTITLE2=Unchained Melody
TTITLE3=Misty
TTITLE4=By The Time I Get To Phoenix
TTITLE5=Am I That Easy To Forget
TTITLE6=Love Me Tender
TTITLE7=My Blue Heaven
TTITLE8=To Each His Own
TTITLE9=She Thinks I Still Care
TTITLE10=A Good Hearted Woman
TTITLE11=I Can't Help It (If I'm Still In Love With You)
TTITLE12=Today, I Started Loving You Again
TTITLE13=Can't Help Falling In Love
TTITLE14=Streets Of Laredo
TTITLE15=You Gave Me A Mountain
TTITLE16=Harbor Lights
TTITLE17=The Hawaiian Wedding Song
TTITLE18=Lovely Hula Hands
TTITLE19=How Is The Hour (Maori Farewell Song)
EXTD=
EXTT0=
EXTT1=
EXTT2=
EXTT3=
EXTT4=
EXTT5=
EXTT6=
EXTT7=
EXTT8=
EXTT9=
EXTT10=
EXTT11=
EXTT12=
EXTT13=
EXTT14=
EXTT15=
EXTT16=
EXTT17=
EXTT18=
EXTT19=
PLAYORDER=
